ffmpeg version 4.2.4-1ubuntu0.1 Copyright (c) 2000-2020 the FFmpeg developers
  built with gcc 9 (Ubuntu 9.3.0-10ubuntu2)
  configuration: --prefix=/usr --extra-version=1ubuntu0.1 --toolchain=hardened --libdir=/usr/lib/x86_64-linux-gnu --incdir=/usr/include/x86_64-linux-gnu --arch=amd64 --enable-gpl --disable-stripping --enable-avresample --disable-filter=resample --enable-avisynth --enable-gnutls --enable-ladspa --enable-libaom --enable-libass --enable-libbluray --enable-libbs2b --enable-libcaca --enable-libcdio --enable-libcodec2 --enable-libflite --enable-libfontconfig --enable-libfreetype --enable-libfribidi --enable-libgme --enable-libgsm --enable-libjack --enable-libmp3lame --enable-libmysofa --enable-libopenjpeg --enable-libopenmpt --enable-libopus --enable-libpulse --enable-librsvg --enable-librubberband --enable-libshine --enable-libsnappy --enable-libsoxr --enable-libspeex --enable-libssh --enable-libtheora --enable-libtwolame --enable-libvidstab --enable-libvorbis --enable-libvpx --enable-libwavpack --enable-libwebp --enable-libx265 --enable-libxml2 --enable-libxvid --enable-libzmq --enable-libzvbi --enable-lv2 --enable-omx --enable-openal --enable-opencl --enable-opengl --enable-sdl2 --enable-libdc1394 --enable-libdrm --enable-libiec61883 --enable-nvenc --enable-chromaprint --enable-frei0r --enable-libx264 --enable-shared
  libavutil      56. 31.100 / 56. 31.100
  libavcodec     58. 54.100 / 58. 54.100
  libavformat    58. 29.100 / 58. 29.100
  libavdevice    58.  8.100 / 58.  8.100
  libavfilter     7. 57.100 /  7. 57.100
  libavresample   4.  0.  0 /  4.  0.  0
  libswscale      5.  5.100 /  5.  5.100
  libswresample   3.  5.100 /  3.  5.100
  libpostproc    55.  5.100 / 55.  5.100
Input #0, image2, from '/tmp/jl_2Mubpn/proc1_%04d.png':
  Duration: 00:00:04.52, start: 0.000000, bitrate: N/A
    Stream #0:0: Video: png, rgb24(pc), 1200x600, 25 fps, 25 tbr, 25 tbn, 25 tbc
Stream mapping:
  Stream #0:0 -> #0:0 (png (native) -> h264 (libx264))
Press [q] to stop, [?] for help
[libx264 @ 0x55d80b1ae540] using cpu capabilities: MMX2 SSE2Fast SSSE3 SSE4.2 AVX FMA3 BMI2 AVX2 AVX512
[libx264 @ 0x55d80b1ae540] profile High, level 3.1
[libx264 @ 0x55d80b1ae540] 264 - core 155 r2917 0a84d98 - H.264/MPEG-4 AVC codec - Copyleft 2003-2018 - http://www.videolan.org/x264.html - options: cabac=1 ref=3 deblock=1:0:0 analyse=0x3:0x113 me=hex subme=7 psy=1 psy_rd=1.00:0.00 mixed_ref=1 me_range=16 chroma_me=1 trellis=1 8x8dct=1 cqm=0 deadzone=21,11 fast_pskip=1 chroma_qp_offset=-2 threads=3 lookahead_threads=1 sliced_threads=0 nr=0 decimate=1 interlaced=0 bluray_compat=0 constrained_intra=0 bframes=3 b_pyramid=2 b_adapt=1 b_bias=0 direct=1 weightb=1 open_gop=0 weightp=2 keyint=250 keyint_min=25 scenecut=40 intra_refresh=0 rc_lookahead=40 rc=crf mbtree=1 crf=23.0 qcomp=0.60 qpmin=0 qpmax=69 qpstep=4 ip_ratio=1.40 aq=1:1.00
Output #0, mp4, to 'vorticity_proc1.mp4':
  Metadata:
    encoder         : Lavf58.29.100
    Stream #0:0: Video: h264 (libx264) (avc1 / 0x31637661), yuv420p, 1200x600, q=-1--1, 25 fps, 12800 tbn, 25 tbc
    Metadata:
      encoder         : Lavc58.54.100 libx264
    Side data:
      cpb: bitrate max/min/avg: 0/0/0 buffer size: 0 vbv_delay: -1
frame=   22 fps=0.0 q=0.0 size=       0kB time=00:00:00.00 bitrate=N/A speed=   0x    frame=   47 fps= 41 q=0.0 size=       0kB time=00:00:00.00 bitrate=N/A speed=   0x    frame=   51 fps= 30 q=28.0 size=       0kB time=00:00:00.04 bitrate=   9.6kbits/s speed=0.0239x    frame=   57 fps= 24 q=28.0 size=       0kB time=00:00:00.28 bitrate=   1.4kbits/s speed=0.116x    frame=   62 fps= 21 q=28.0 size=       0kB time=00:00:00.48 bitrate=   0.8kbits/s speed=0.161x    frame=   66 fps= 19 q=28.0 size=       0kB time=00:00:00.64 bitrate=   0.6kbits/s speed=0.18x    frame=   70 fps= 17 q=28.0 size=       0kB time=00:00:00.80 bitrate=   0.5kbits/s speed=0.194x    frame=   74 fps= 16 q=28.0 size=       0kB time=00:00:00.96 bitrate=   0.4kbits/s speed=0.206x    frame=   79 fps= 15 q=28.0 size=       0kB time=00:00:01.16 bitrate=   0.3kbits/s speed=0.225x    frame=   82 fps= 14 q=28.0 size=       0kB time=00:00:01.28 bitrate=   0.3kbits/s speed=0.224x    frame=   86 fps= 13 q=28.0 size=       0kB time=00:00:01.44 bitrate=   0.3kbits/s speed=0.225x    frame=   90 fps= 13 q=28.0 size=       0kB time=00:00:01.60 bitrate=   0.2kbits/s speed=0.228x    frame=   94 fps= 12 q=28.0 size=       0kB time=00:00:01.76 bitrate=   0.2kbits/s speed=0.23x    frame=   98 fps= 12 q=28.0 size=       0kB time=00:00:01.92 bitrate=   0.2kbits/s speed=0.233x    frame=  102 fps= 11 q=28.0 size=       0kB time=00:00:02.08 bitrate=   0.2kbits/s speed=0.234x    frame=  106 fps= 11 q=28.0 size=       0kB time=00:00:02.24 bitrate=   0.2kbits/s speed=0.233x    frame=  110 fps= 11 q=28.0 size=       0kB time=00:00:02.40 bitrate=   0.2kbits/s speed=0.237x    frame=  114 fps= 11 q=28.0 size=       0kB time=00:00:02.56 bitrate=   0.1kbits/s speed=0.239x    frame=  118 fps= 10 q=28.0 size=       0kB time=00:00:02.72 bitrate=   0.1kbits/s speed=0.239x    frame=  122 fps= 10 q=28.0 size=       0kB time=00:00:02.88 bitrate=   0.1kbits/s speed=0.241x    frame=  126 fps= 10 q=28.0 size=       0kB time=00:00:03.04 bitrate=   0.1kbits/s speed=0.242x    frame=  130 fps=9.9 q=28.0 size=     256kB time=00:00:03.20 bitrate= 655.5kbits/s speed=0.244x    frame=  134 fps=9.8 q=28.0 size=     256kB time=00:00:03.36 bitrate= 624.3kbits/s speed=0.247x    frame=  138 fps=9.7 q=28.0 size=     256kB time=00:00:03.52 bitrate= 595.9kbits/s speed=0.248x    frame=  143 fps=9.7 q=28.0 size=     256kB time=00:00:03.72 bitrate= 563.8kbits/s speed=0.253x    frame=  147 fps=9.7 q=28.0 size=     256kB time=00:00:03.88 bitrate= 540.6kbits/s speed=0.255x    frame=  153 fps=9.7 q=28.0 size=     256kB time=00:00:04.12 bitrate= 509.1kbits/s speed=0.261x    frame=  158 fps=9.6 q=28.0 size=     256kB time=00:00:04.32 bitrate= 485.5kbits/s speed=0.263x    frame=  163 fps=9.6 q=28.0 size=     256kB time=00:00:04.52 bitrate= 464.0kbits/s speed=0.266x    frame=  169 fps=9.7 q=28.0 size=     256kB time=00:00:04.76 bitrate= 440.7kbits/s speed=0.272x    frame=  173 fps=9.6 q=28.0 size=     256kB time=00:00:04.92 bitrate= 426.3kbits/s speed=0.272x    frame=  178 fps=9.4 q=28.0 size=     256kB time=00:00:05.12 bitrate= 409.7kbits/s speed=0.271x    frame=  182 fps=9.4 q=28.0 size=     256kB time=00:00:05.28 bitrate= 397.3kbits/s speed=0.271x    frame=  186 fps=9.3 q=28.0 size=     256kB time=00:00:05.44 bitrate= 385.6kbits/s speed=0.271x    frame=  190 fps=9.2 q=28.0 size=     256kB time=00:00:05.60 bitrate= 374.6kbits/s speed=0.27x    frame=  194 fps=9.1 q=28.0 size=     256kB time=00:00:05.76 bitrate= 364.2kbits/s speed=0.271x    frame=  200 fps=9.2 q=28.0 size=     256kB time=00:00:06.00 bitrate= 349.6kbits/s speed=0.276x    frame=  204 fps=9.1 q=28.0 size=     256kB time=00:00:06.16 bitrate= 340.5kbits/s speed=0.276x    frame=  211 fps=9.2 q=28.0 size=     256kB time=00:00:06.44 bitrate= 325.7kbits/s speed=0.281x    frame=  216 fps=9.1 q=28.0 size=     256kB time=00:00:06.64 bitrate= 315.9kbits/s speed=0.279x    frame=  221 fps=9.1 q=28.0 size=     256kB time=00:00:06.84 bitrate= 306.7kbits/s speed=0.281x    frame=  227 fps=9.1 q=28.0 size=     512kB time=00:00:07.08 bitrate= 592.5kbits/s speed=0.284x    frame=  232 fps=9.1 q=28.0 size=     512kB time=00:00:07.28 bitrate= 576.2kbits/s speed=0.285x    frame=  237 fps=9.0 q=28.0 size=     512kB time=00:00:07.48 bitrate= 560.8kbits/s speed=0.285x    frame=  244 fps=9.0 q=28.0 size=     512kB time=00:00:07.76 bitrate= 540.5kbits/s speed=0.288x    frame=  248 fps=9.0 q=28.0 size=     512kB time=00:00:07.92 bitrate= 529.6kbits/s speed=0.288x    frame=  252 fps=9.0 q=28.0 size=     512kB time=00:00:08.08 bitrate= 519.1kbits/s speed=0.287x    frame=  257 fps=9.0 q=28.0 size=     512kB time=00:00:08.28 bitrate= 506.6kbits/s speed=0.289x    frame=  260 fps=8.9 q=28.0 size=     512kB time=00:00:08.40 bitrate= 499.4kbits/s speed=0.287x    frame=  263 fps=8.8 q=28.0 size=     512kB time=00:00:08.52 bitrate= 492.3kbits/s speed=0.286x    frame=  267 fps=8.8 q=28.0 size=     512kB time=00:00:08.68 bitrate= 483.3kbits/s speed=0.286x    frame=  271 fps=8.7 q=28.0 size=     512kB time=00:00:08.84 bitrate= 474.5kbits/s speed=0.285x    frame=  275 fps=8.7 q=28.0 size=     512kB time=00:00:09.00 bitrate= 466.1kbits/s speed=0.285x    frame=  279 fps=8.7 q=28.0 size=     512kB time=00:00:09.16 bitrate= 457.9kbits/s speed=0.286x    frame=  283 fps=8.7 q=28.0 size=     512kB time=00:00:09.32 bitrate= 450.1kbits/s speed=0.286x    frame=  283 fps=7.5 q=-1.0 Lsize=     831kB time=00:00:11.20 bitrate= 607.8kbits/s speed=0.298x    
video:827kB audio:0kB subtitle:0kB other streams:0kB global headers:0kB muxing overhead: 0.499507%
[libx264 @ 0x55d80b1ae540] frame I:2     Avg QP:17.70  size: 38362
[libx264 @ 0x55d80b1ae540] frame P:72    Avg QP:25.23  size:  8317
[libx264 @ 0x55d80b1ae540] frame B:209   Avg QP:19.84  size:   815
[libx264 @ 0x55d80b1ae540] consecutive B-frames:  0.7%  2.1%  1.1% 96.1%
[libx264 @ 0x55d80b1ae540] mb I  I16..4: 28.1% 45.2% 26.8%
[libx264 @ 0x55d80b1ae540] mb P  I16..4:  0.4%  1.6%  0.9%  P16..4:  5.6%  6.8%  4.6%  0.0%  0.0%    skip:80.1%
[libx264 @ 0x55d80b1ae540] mb B  I16..4:  0.2%  0.1%  0.0%  B16..8:  6.9%  1.0%  0.4%  direct: 0.3%  skip:91.1%  L0:45.1% L1:46.7% BI: 8.2%
[libx264 @ 0x55d80b1ae540] 8x8 transform intra:47.5% inter:38.0%
[libx264 @ 0x55d80b1ae540] coded y,uvDC,uvAC intra: 38.0% 39.8% 32.4% inter: 2.7% 2.2% 0.7%
[libx264 @ 0x55d80b1ae540] i16 v,h,dc,p: 71% 18%  8%  3%
[libx264 @ 0x55d80b1ae540] i8 v,h,dc,ddl,ddr,vr,hd,vl,hu: 26% 11% 35%  5%  5%  4%  6%  4%  6%
[libx264 @ 0x55d80b1ae540] i4 v,h,dc,ddl,ddr,vr,hd,vl,hu: 29% 18% 18%  5%  6%  5%  8%  4%  8%
[libx264 @ 0x55d80b1ae540] i8c dc,h,v,p: 70% 14% 12%  5%
[libx264 @ 0x55d80b1ae540] Weighted P-Frames: Y:0.0% UV:0.0%
[libx264 @ 0x55d80b1ae540] ref P L0: 69.3% 15.5% 10.5%  4.8%
[libx264 @ 0x55d80b1ae540] ref B L0: 86.7% 10.9%  2.5%
[libx264 @ 0x55d80b1ae540] ref B L1: 98.1%  1.9%
[libx264 @ 0x55d80b1ae540] kb/s:597.84
